<svg aria-hidden="true" style="position: absolute; width: 0; height: 0; overflow: hidden;" version="1.1" xmlns="http://www.w3.org/2000/svg" xmlns:xlink="http://www.w3.org/1999/xlink">
<defs>
<symbol id="icon-tel" viewBox="0 0 32 32">
<path fill="none" stroke="#cda274" style="stroke: var(--color1, #cda274)" stroke-linejoin="miter" stroke-linecap="butt" stroke-miterlimit="10" stroke-width="1.8824" d="M30.119 24.541c-1.15-1.158-3.934-2.849-5.285-3.53-1.759-0.886-1.904-0.959-3.287 0.069-0.922 0.686-1.536 1.298-2.615 1.068s-3.425-1.528-5.479-3.576c-2.054-2.047-3.427-4.461-3.658-5.537s0.392-1.682 1.071-2.606c0.957-1.303 0.885-1.52 0.067-3.28-0.638-1.368-2.378-4.127-3.54-5.27-1.244-1.229-1.244-1.011-2.045-0.678-0.652 0.274-1.278 0.608-1.87 0.997-1.158 0.77-1.801 1.409-2.251 2.369s-0.652 3.213 1.67 7.431c2.322 4.218 3.951 6.374 7.323 9.736s5.964 5.17 9.754 7.295c4.689 2.626 6.487 2.114 7.451 1.665s1.606-1.086 2.377-2.244c0.39-0.591 0.724-1.216 0.999-1.868 0.334-0.799 0.551-0.799-0.68-2.042z"></path>
</symbol>
<symbol id="icon-logo" viewBox="0 0 113 32">
<path fill="#292f36" style="fill: var(--color2, #292f36)" d="M28.723 24.96v-0.256l0.512-0.205c0.341-0.119 0.563-0.282 0.666-0.486 0.119-0.205 0.179-0.478 0.179-0.819v-13.363c0-0.341-0.051-0.614-0.154-0.819s-0.333-0.367-0.691-0.486l-0.512-0.205v-0.256h6.579v0.256l-0.512 0.205c-0.341 0.12-0.572 0.282-0.691 0.486-0.102 0.205-0.154 0.478-0.154 0.819v13.363c0 0.341 0.051 0.614 0.154 0.819 0.12 0.188 0.35 0.35 0.691 0.486l0.512 0.205v0.256h-6.579zM36.372 24.96v-0.256l0.358-0.102c0.597-0.171 0.896-0.589 0.896-1.254v-8.013c0-0.376-0.060-0.649-0.179-0.819-0.12-0.188-0.35-0.316-0.691-0.384l-0.384-0.102v-0.256l4.378-1.485 0.256 0.256 0.205 1.536c0.597-0.529 1.271-0.964 2.022-1.306s1.493-0.512 2.227-0.512c1.126 0 1.988 0.307 2.586 0.922 0.614 0.614 0.922 1.553 0.922 2.816v7.373c0 0.666 0.324 1.084 0.973 1.254l0.23 0.077v0.256h-6.042v-0.256l0.333-0.102c0.597-0.188 0.896-0.606 0.896-1.254v-8.166c0-1.092-0.546-1.638-1.638-1.638-0.751 0-1.57 0.376-2.458 1.126v8.704c0 0.666 0.299 1.084 0.896 1.254l0.23 0.077v0.256h-6.016zM55.911 25.344c-1.092 0-1.946-0.273-2.56-0.819-0.597-0.546-0.896-1.416-0.896-2.611v-8.755h-1.766v-0.256l0.614-0.102c0.529-0.12 0.981-0.29 1.357-0.512 0.393-0.222 0.777-0.521 1.152-0.896l2.099-2.33h0.256l-0.077 3.584h2.867v0.512h-2.893v9.216c0 0.597 0.128 1.050 0.384 1.357 0.273 0.307 0.614 0.461 1.024 0.461 0.358 0 0.674-0.085 0.947-0.256 0.273-0.188 0.546-0.435 0.819-0.742l0.256 0.256c-0.341 0.58-0.811 1.041-1.408 1.382s-1.323 0.512-2.176 0.512zM66.648 12.262c1.109 0 2.056 0.23 2.842 0.691 0.785 0.444 1.382 1.058 1.792 1.843 0.427 0.768 0.64 1.647 0.64 2.637 0 0.188-0.008 0.384-0.026 0.589-0.017 0.188-0.051 0.358-0.102 0.512h-7.629c0.017 1.843 0.341 3.174 0.973 3.994 0.648 0.802 1.604 1.203 2.867 1.203 0.853 0 1.544-0.137 2.074-0.41s1.024-0.674 1.485-1.203l0.256 0.23c-0.529 0.939-1.237 1.672-2.125 2.202-0.87 0.529-1.92 0.794-3.149 0.794-1.212 0-2.287-0.256-3.226-0.768-0.939-0.529-1.673-1.28-2.202-2.253s-0.794-2.133-0.794-3.482c0-1.399 0.307-2.586 0.922-3.558 0.614-0.99 1.399-1.741 2.355-2.253 0.973-0.512 1.989-0.768 3.046-0.768zM66.571 12.774c-0.495 0-0.922 0.154-1.28 0.461-0.341 0.29-0.614 0.819-0.819 1.587-0.188 0.751-0.29 1.818-0.307 3.2h4.378c0.171-1.86 0.102-3.2-0.205-4.019s-0.896-1.229-1.766-1.229zM73.197 24.96v-0.256l0.384-0.102c0.342-0.102 0.572-0.256 0.691-0.461 0.137-0.205 0.205-0.469 0.205-0.794v-8.013c0-0.376-0.068-0.649-0.205-0.819-0.119-0.188-0.349-0.316-0.691-0.384l-0.384-0.102v-0.256l4.403-1.485 0.256 0.256 0.23 2.202v0.205c0.239-0.478 0.547-0.913 0.922-1.306 0.393-0.41 0.819-0.742 1.28-0.998 0.478-0.256 0.947-0.384 1.408-0.384 0.649 0 1.144 0.179 1.485 0.538s0.512 0.811 0.512 1.357c0 0.58-0.17 1.033-0.512 1.357-0.324 0.307-0.717 0.461-1.178 0.461-0.717 0-1.348-0.358-1.894-1.075l-0.051-0.051c-0.17-0.239-0.367-0.367-0.589-0.384-0.221-0.034-0.426 0.068-0.614 0.307-0.17 0.154-0.316 0.341-0.435 0.563-0.102 0.205-0.205 0.444-0.307 0.717v7.142c0 0.683 0.299 1.109 0.896 1.28l0.819 0.23v0.256h-6.63zM84.497 24.96v-0.256l0.358-0.102c0.597-0.171 0.896-0.589 0.896-1.254v-8.013c0-0.376-0.060-0.649-0.179-0.819-0.12-0.188-0.35-0.316-0.691-0.384l-0.384-0.102v-0.256l4.378-1.485 0.256 0.256 0.205 1.536c0.597-0.529 1.271-0.964 2.022-1.306s1.493-0.512 2.227-0.512c1.126 0 1.988 0.307 2.586 0.922 0.614 0.614 0.922 1.553 0.922 2.816v7.373c0 0.666 0.324 1.084 0.973 1.254l0.23 0.077v0.256h-6.042v-0.256l0.333-0.102c0.597-0.188 0.896-0.606 0.896-1.254v-8.166c0-1.092-0.547-1.638-1.638-1.638-0.751 0-1.571 0.376-2.458 1.126v8.704c0 0.666 0.298 1.084 0.896 1.254l0.23 0.077v0.256h-6.016zM105.774 25.344c-1.297 0-2.424-0.265-3.379-0.794-0.956-0.546-1.699-1.314-2.227-2.304-0.512-0.99-0.768-2.15-0.768-3.482s0.273-2.483 0.819-3.456c0.563-0.973 1.322-1.724 2.278-2.253 0.973-0.529 2.065-0.794 3.277-0.794s2.295 0.264 3.251 0.794c0.956 0.512 1.706 1.254 2.253 2.227 0.563 0.973 0.845 2.133 0.845 3.482s-0.265 2.517-0.794 3.507c-0.512 0.973-1.246 1.732-2.202 2.278-0.939 0.529-2.057 0.794-3.354 0.794zM105.774 24.832c0.597 0 1.075-0.171 1.434-0.512s0.614-0.947 0.768-1.818c0.17-0.87 0.256-2.099 0.256-3.686 0-1.604-0.086-2.842-0.256-3.712-0.154-0.87-0.41-1.476-0.768-1.818s-0.836-0.512-1.434-0.512c-0.598 0-1.084 0.171-1.459 0.512-0.358 0.341-0.623 0.947-0.794 1.818-0.154 0.87-0.23 2.108-0.23 3.712 0 1.587 0.077 2.816 0.23 3.686 0.17 0.87 0.435 1.476 0.794 1.818 0.375 0.341 0.861 0.512 1.459 0.512z"></path>
<path fill="#cda274" style="fill: var(--color1, #cda274)" d="M0 26.88h8.614v-6.081c0-1.289 1.044-2.333 2.333-2.333s2.333 1.044 2.333 2.333v6.081h8.48v-21.76c-12.017 0-21.758 9.742-21.758 21.76z"></path>
</symbol>
<symbol id="icon-instagram" viewBox="0 0 30 32">
<path d="M15.111 8.497c-4.222 0-7.587 3.431-7.587 7.587 0 4.222 3.365 7.587 7.587 7.587 4.156 0 7.587-3.365 7.587-7.587 0-4.156-3.431-7.587-7.587-7.587zM15.111 21.031c-2.705 0-4.948-2.177-4.948-4.948 0-2.705 2.177-4.882 4.948-4.882 2.705 0 4.882 2.177 4.882 4.882 0 2.771-2.177 4.948-4.882 4.948zM24.743 8.233c0-0.99-0.792-1.781-1.781-1.781s-1.781 0.792-1.781 1.781 0.792 1.781 1.781 1.781c0.99 0 1.781-0.792 1.781-1.781zM29.757 10.014c-0.132-2.375-0.66-4.486-2.375-6.201s-3.826-2.243-6.201-2.375c-2.441-0.132-9.764-0.132-12.205 0-2.375 0.132-4.42 0.66-6.201 2.375-1.715 1.715-2.243 3.826-2.375 6.201-0.132 2.441-0.132 9.764 0 12.205 0.132 2.375 0.66 4.42 2.375 6.201 1.781 1.715 3.826 2.243 6.201 2.375 2.441 0.132 9.764 0.132 12.205 0 2.375-0.132 4.486-0.66 6.201-2.375 1.715-1.781 2.243-3.826 2.375-6.201 0.132-2.441 0.132-9.764 0-12.205zM26.59 24.792c-0.462 1.319-1.517 2.309-2.771 2.837-1.979 0.792-6.597 0.594-8.708 0.594-2.177 0-6.795 0.198-8.708-0.594-1.319-0.528-2.309-1.517-2.837-2.837-0.792-1.913-0.594-6.531-0.594-8.708 0-2.111-0.198-6.729 0.594-8.708 0.528-1.253 1.517-2.243 2.837-2.771 1.913-0.792 6.531-0.594 8.708-0.594 2.111 0 6.729-0.198 8.708 0.594 1.253 0.462 2.243 1.517 2.771 2.771 0.792 1.979 0.594 6.597 0.594 8.708 0 2.177 0.198 6.795-0.594 8.708z"></path>
</symbol>
<symbol id="icon-linkedin" viewBox="0 0 30 32">
<path d="M6.853 30.441v-19.787h-6.154v19.787h6.154zM3.743 8.007c1.985 0 3.574-1.654 3.574-3.64 0-1.919-1.588-3.507-3.574-3.507-1.919 0-3.507 1.588-3.507 3.507 0 1.985 1.588 3.64 3.507 3.64zM29.816 30.441h0.066v-10.853c0-5.294-1.191-9.397-7.412-9.397-2.978 0-4.963 1.654-5.824 3.176h-0.066v-2.713h-5.89v19.787h6.154v-9.794c0-2.581 0.463-5.029 3.64-5.029s3.243 2.912 3.243 5.228v9.595h6.088z"></path>
</symbol>
<symbol id="icon-twitter" viewBox="0 0 38 32">
<path d="M34.425 8.033c1.5-1.125 2.85-2.475 3.9-4.050-1.35 0.6-2.925 1.050-4.5 1.2 1.65-0.975 2.85-2.475 3.45-4.35-1.5 0.9-3.225 1.575-4.95 1.95-1.5-1.575-3.525-2.475-5.775-2.475-4.35 0-7.875 3.525-7.875 7.875 0 0.6 0.075 1.2 0.225 1.8-6.525-0.375-12.375-3.525-16.275-8.25-0.675 1.125-1.050 2.475-1.050 3.975 0 2.7 1.35 5.1 3.525 6.525-1.275-0.075-2.55-0.375-3.6-0.975v0.075c0 3.825 2.7 6.975 6.3 7.725-0.6 0.15-1.35 0.3-2.025 0.3-0.525 0-0.975-0.075-1.5-0.15 0.975 3.15 3.9 5.4 7.35 5.475-2.7 2.1-6.075 3.375-9.75 3.375-0.675 0-1.275-0.075-1.875-0.15 3.45 2.25 7.575 3.525 12.075 3.525 14.475 0 22.35-11.925 22.35-22.35 0-0.375 0-0.675 0-1.050z"></path>
</symbol>
<symbol id="icon-facebook" viewBox="0 0 17 32">
<path d="M15.467 17.763l0.829-5.447h-5.27v-3.553c0-1.539 0.711-2.961 3.079-2.961h2.428v-4.678c0 0-2.191-0.414-4.263-0.414-4.322 0-7.164 2.664-7.164 7.401v4.204h-4.855v5.447h4.855v13.263h5.921v-13.263h4.441z"></path>
</symbol>
<symbol id="icon-arrow" viewBox="0 0 45 32">
<path fill="none" stroke="#cda274" style="stroke: var(--color1, #cda274)" stroke-linejoin="round" stroke-linecap="square" stroke-miterlimit="4" stroke-width="3.7647" d="M4.755 16.81l32.63-0.258"></path>
<path fill="none" stroke="#cda274" style="stroke: var(--color1, #cda274)" stroke-linejoin="round" stroke-linecap="square" stroke-miterlimit="4" stroke-width="3.7647" d="M25.247 4.529l15.509 12.279-15.822 12.526"></path>
</symbol>
<symbol id="icon-next" viewBox="0 0 18 32">
<path stroke-linejoin="round" stroke-linecap="round" stroke-miterlimit="4" stroke-width="4" d="M3.542 29.372l11.886-13.371-11.886-13.371"></path>
</symbol>
</defs>
</svg>
